# AST/ASF file generated using VICON BodyLanguage
# -----------------------------------------------
:version 1.10
:name VICON
:units
  mass 1.0
  length 0.45
  angle deg
:documentation
   .ast/.asf automatically generated from VICON data using
   VICON BodyBuilder and BodyLanguage model FoxedUp or BRILLIANT.MOD
:root
   order TX TY TZ RX RY RZ
   axis XYZ
   position 0 0 0  
   orientation 0 0 0 
:bonedata
  begin
     id 1 
     name lhipjoint
     direction 0.577973 -0.728611 0.367523 
     length 2.48544 
     axis 0 0 0  XYZ
  end
  begin
     id 2 
     name lfemur
     direction 0.34202 -0.939693 0  
     length 7.1921  
     axis 0 0 20  XYZ
    dof rx ry rz
    limits (-160.0 20.0)
           (-70.0 70.0)
           (-60.0 70.0)
  end
  begin
     id 3 
     name ltibia
     direction 0.34202 -0.939693 0   
     length 7.71059   
     axis 0 0 20   XYZ
    dof rx
    limits (-10.0 170.0)
  end
  begin
     id 4 
     name lfoot
     direction 0.089538 -0.246004 0.965124   
     length 2.19909   
     axis -90 7.62852e-016 20   XYZ
    dof rx rz
    limits (-45.0 90.0)
           (-70.0 20.0)
  end
  begin
     id 5 
     name ltoes
     direction 1.53544e-011 -4.21829e-011 1   
     length 1.10116   
     axis -90 7.62852e-016 20   XYZ
    dof rx
    limits (-90.0 20.0)
  end
  begin
     id 6 
     name rhipjoint
     direction -0.554414 -0.743062 0.374812   
     length 2.4371  
     axis 0 0 0  XYZ 
  end
  begin
     id 7 
     name rfemur
     direction -0.34202 -0.939693 0   
     length 7.47254   
     axis 0 0 -20   XYZ
    dof rx ry rz
    limits (-160.0 20.0)
           (-70.0 70.0)
           (-70.0 60.0)
  end
  begin
     id 8 
     name rtibia
     direction -0.34202 -0.939693 0   
     length 7.65855   
     axis 0 0 -20   XYZ
    dof rx
    limits (-10.0 170.0)
 end
 begin
     id 9 
     name rfoot
     direction -0.133779 -0.367555 0.92033   
     length 2.43006  
     axis -90 -7.62852e-016 -20   XYZ
    dof rx rz
    limits (-45.0 90.0)
           (-20.0 70.0)
  end
  begin
     id 10 
     name rtoes
     direction -1.53563e-011 -4.21889e-011 1   
     length 1.19625   
     axis -90 -7.62852e-016 -20   XYZ
    dof rx
    limits (-90.0 20.0)
  end
  begin
     id 11 
     name lowerback
     direction 0.0249066 0.998043 -0.0573585   
     length 2.08485   
     axis 0 0 0   XYZ
    dof rx ry rz
    limits (-20.0 45.0)
           (-30.0 30.0)
           (-30.0 30.0)
  end
  begin
     id 12 
     name upperback
     direction 0.0237884 0.999673 0.00943178   
     length 2.08515   
     axis 0 0 0   XYZ
    dof rx ry rz
    limits (-20.0 45.0)
           (-30.0 30.0)
           (-30.0 30.0)
  end
  begin
     id 13 
     name thorax
     direction 0.0106671 0.999301 0.0358174   
     length 2.09037   
     axis 0 0 0   XYZ
    dof rx ry rz
    limits (-20.0 45.0)
           (-30.0 30.0)
           (-30.0 30.0)
  end
  begin
     id 14 
     name lowerneck
     direction -0.0580016 0.987052 0.149546   
     length 1.84454   
     axis 0 0 0   XYZ
    dof rx ry rz
    limits (-20.0 45.0)
           (-30.0 30.0)
           (-30.0 30.0)
  end
  begin
     id 15 
     name upperneck
     direction 0.079456 0.981963 -0.171567   
     length 1.88141   
     axis 0 0 0   XYZ
    dof rx ry rz
    limits (-20.0 45.0)
           (-30.0 30.0)
           (-30.0 30.0)
  end
  begin
     id 16
     name head
     direction 0.0262167 0.9967 -0.0768276  
     length 1.89541  
     axis 0 0 0   XYZ
    dof rx ry rz
    limits (-20.0 45.0)
           (-30.0 30.0)
           (-30.0 30.0)
  end
  begin
     id 17 
     name lclavicle
     direction 0.946135 0.322134 -0.0325326  
     length 3.949  
     axis 0 0 0   XYZ
    dof ry rz
    limits (-20.0 10.0)
           (0.0 20.0)
  end
  begin
     id 18 
     name lhumerus
     direction 1 -4.48964e-011 1.94005e-028   
     length 5.10995   
     axis 180 -30 -90   XYZ
    dof rx ry rz
    limits (-60.0 90.0)
           (-90.0 90.0)
           (-90.0 90.0)
  end
  begin
     id 19
     name lradius
     direction 1 -4.48976e-011 2.87852e-027   
     length 3.21207   
     axis 180 -30 -90   XYZ
    dof rx
    limits (-10.0 170.0)
  end
  begin
     id 20
     name lwrist
     direction 1 -4.48963e-011 1.9975e-027   
     length 1.60604   
     axis 2.96054e-016 90 90   XYZ
    dof ry
    limits (-180.0 0.0)
 end
  begin
     id 21 
     name lhand
     direction 1 -4.48919e-011 4.00227e-027   
     length 0.63349   
     axis -2.5488e-015 90 90   XYZ
    dof rx rz
    limits (-90.0 90.0)
           (-45.0 45.0)
  end
  begin
     id 22 
     name lfingers
     direction 1 -4.49037e-011 7.9652e-027   
     length 0.510736   
     axis -5.0975e-015 90 90   XYZ
    dof rx
    limits (0.0 90.0)
  end
  begin
     id 23
     name lthumb
     direction 0.707107 -6.34922e-011 0.707107   
     length 0.733318   
     axis -90 45 -4.48553e-014   XYZ
    dof rx rz
    limits (-45.0 45.0)
           (-45.0 45.0)
  end
  begin
     id 24 
     name rclavicle
     direction -0.940085 0.328911 -0.0897654   
     length 3.93848  
     axis 0 0 0   XYZ 
    dof ry rz
    limits (-10.0 20.0)
           (-20.0 0.0)
  end
  begin
     id 25 
     name rhumerus
     direction -1 -4.48958e-011 3.02044e-027  
     length 5.25109   
     axis 180 30 90   XYZ
    dof rx ry rz
    limits (-90.0 60.0)
           (-90.0 90.0)
           (-90.0 90.0)
  end
  begin
     id 26 
     name rradius
     direction -1 -4.4897e-011 9.78352e-028   
     length 3.28364   
     axis 180 30 90   XYZ
    dof rx
    limits (-10.0 170.0)
  end
  begin
     id 27 
     name rwrist
     direction -1 -4.48943e-011 1.99918e-027   
     length 1.64182   
     axis 2.96054e-016 -90 -90   XYZ
    dof ry
    limits (-180.0 0.0)
  end
  begin
     id 28
     name rhand
     direction -1 -4.49024e-011 3.98478e-027   
     length 0.599745   
     axis -2.5488e-015 -90 -90   XYZ
    dof rx rz
    limits (-90.0 90.0)
           (-45.0 45.0)
  end
  begin
     id 29
     name rfingers
     direction -1 -4.48914e-011 8.00621e-027   
     length 0.48353   
     axis -5.0975e-015 -90 -90   XYZ
    dof rx
    limits (0.0 90.0)
  end
  begin
     id 30
     name rthumb
     direction -0.707107 -6.34992e-011 0.707107   
     length 0.694255   
     axis -90 -45 4.48553e-014   XYZ
    dof rx rz
    limits (-45.0 45.0)
           (-45.0 45.0)
  end
:hierarchy
  begin
    root lhipjoint rhipjoint lowerback
    lhipjoint lfemur
    lfemur ltibia
    ltibia lfoot
    lfoot ltoes
    rhipjoint rfemur
    rfemur rtibia
    rtibia rfoot
    rfoot rtoes
    lowerback upperback
    upperback thorax
    thorax lowerneck lclavicle rclavicle
    lowerneck upperneck
    upperneck head
    lclavicle lhumerus
    lhumerus lradius
    lradius lwrist
    lwrist lhand lthumb
    lhand lfingers
    rclavicle rhumerus
    rhumerus rradius
    rradius rwrist
    rwrist rhand rthumb
    rhand rfingers
  end

#!OML:ASF E:\CV Data\Top Level 1\Subject 1\Session 1\player.ASF
:FULLY-SPECIFIED
:DEGREES
83
root 6.83683 17.163 -8.98702 150.329 -82.5669 -147.202
lowerback 4.92091 2.84293 2.96127
upperback -0.311842 3.99978 2.1895
thorax -3.03173 1.94609 0.303031
lowerneck -15.9084 8.25057 -2.88098
upperneck 22.4328 11.2297 3.57132
head 9.29003 5.31743 3.05953
rclavicle 7.03201e-015 -2.38542e-015
rhumerus -42.0376 41.4143 -106.277
rradius 92.5959
rwrist -6.53541
rhand -30.8958 25.6041
rfingers 7.12502
rthumb -4.18255 -4.33459
lclavicle 7.03201e-015 -2.38542e-015
lhumerus -44.9595 -34.6517 112.037
lradius 87.8173
lwrist 0.947827
lhand -28.8236 8.77003
lfingers 7.12502
lthumb -2.18132 38.7386
rfemur -20.4753 8.2691 28.0476
rtibia 40.7666
rfoot -21.4945 -2.66606
rtoes 14.5326
lfemur -17.0369 4.99537 -14.2145
ltibia 38.8081
lfoot -18.2117 9.61243
ltoes -0.258435
84
root 6.86092 17.1609 -8.99918 150.518 -82.4463 -147.332
lowerback 5.09673 2.85274 3.03951
upperback -0.246539 4.02207 2.19184
thorax -3.05746 1.95525 0.252944
lowerneck -15.8506 8.46613 -2.78804
upperneck 22.3673 11.5265 3.47669
head 9.25774 5.45533 3.04077
rclavicle -1.47349e-014 9.14409e-015
rhumerus -41.9592 41.4392 -106.224
rradius 92.6574
rwrist -6.54098
rhand -30.9517 25.6342
rfingers 7.12502
rthumb -4.23653 -4.30338
lclavicle -1.47349e-014 9.14409e-015
lhumerus -44.9116 -34.6186 112.04
lradius 87.8444
lwrist 0.808951
lhand -29.0453 8.71938
lfingers 7.12502
lthumb -2.39543 38.6857
rfemur -20.6373 8.32101 28.1401
rtibia 40.7792
rfoot -21.4056 -2.5996
rtoes 14.5959
lfemur -17.2452 5.04983 -14.1112
ltibia 38.9427
lfoot -18.1757 9.63969
ltoes -0.206289
85
root 6.88547 17.1593 -9.01142 150.682 -82.33 -147.423
lowerback 5.26262 2.86176 3.11905
upperback -0.182716 4.04315 2.19532
thorax -3.07906 1.96383 0.203836
lowerneck -15.7874 8.68648 -2.69733
upperneck 22.2905 11.833 3.37061
head 9.22158 5.59676 3.0188
rclavicle 1.01629e-014 3.02153e-014
rhumerus -41.8827 41.4555 -106.169
rradius 92.7226
rwrist -6.54582
rhand -31.0018 25.6727
rfingers 7.12502
rthumb -4.28485 -4.26399
lclavicle 1.01629e-014 3.02153e-014
lhumerus -44.8663 -34.5817 112.054
lradius 87.8659
lwrist 0.649603
lhand -29.3046 8.70743
lfingers 7.12502
lthumb -2.64589 38.6708
rfemur -20.814 8.36855 28.2319
rtibia 40.7875
rfoot -21.3125 -2.52733
rtoes 14.6955
lfemur -17.4702 5.09047 -14.0068
ltibia 39.0752
lfoot -18.1353 9.66791
ltoes -0.123233
86
root 6.9106 17.158 -9.02423 150.855 -82.2221 -147.508
lowerback 5.4196 2.87113 3.19282
upperback -0.123243 4.06423 2.19418
thorax -3.10011 1.9725 0.153472
lowerneck -15.7277 8.90653 -2.60455
upperneck 22.2127 12.1389 3.26265
head 9.18677 5.73803 2.99601
rclavicle 1.00883e-014 -5.1684e-015
rhumerus -41.8099 41.4569 -106.119
rradius 92.7911
rwrist -6.546
rhand -31.0548 25.714
rfingers 7.12502
rthumb -4.33601 -4.22158
lclavicle 1.00883e-014 -5.1684e-015
lhumerus -44.8374 -34.5581 112.075
lradius 87.8905
lwrist 0.474877
lhand -29.5839 8.71552
lfingers 7.12502
lthumb -2.91564 38.6753
rfemur -21.0078 8.41537 28.3195
rtibia 40.7923
rfoot -21.2137 -2.45919
rtoes 14.8018
lfemur -17.7131 5.13956 -13.9051
ltibia 39.2023
lfoot -18.09 9.68192
ltoes -0.0385463
87
root 6.93617 17.1573 -9.03699 151.037 -82.1197 -147.588
lowerback 5.5665 2.8813 3.26812
upperback -0.0659416 4.08617 2.18899
thorax -3.11725 1.98163 0.0984783
lowerneck -15.6715 9.12277 -2.51893
upperneck 22.1319 12.4397 3.16156
head 9.1514 5.87731 2.97602
rclavicle -1.59525e-014 5.1684e-015
rhumerus -41.7382 41.4435 -106.07
rradius 92.8607
rwrist -6.54606
rhand -31.107 25.7549
rfingers 7.12502
rthumb -4.38647 -4.17968
lclavicle -1.59525e-014 5.1684e-015
lhumerus -44.816 -34.5522 112.101
lradius 87.9151
lwrist 0.292513
lhand -29.8525 8.72985
lfingers 7.12502
lthumb -3.17506 38.686
rfemur -21.2153 8.45604 28.4022
rtibia 40.7925
rfoot -21.1107 -2.38567
rtoes 14.9227
lfemur -17.9669 5.17078 -13.8076
ltibia 39.3212
lfoot -18.0403 9.70621
ltoes 0.0896248
